name C:\Users\u0101727\Documents\MyRepositories\upper-imu-dc\Results\main_mocap_tracking\Case_8\FLX01_linearAccelerations.mot
datacolumns 4
datarows 105
range 5.01000000 6.05000000
endheader 
time	radius_imu_x	radius_imu_y	radius_imu_z	
          5.01000000	         -2.11172621	          3.54476621	         10.06040995	
          5.02000000	         -1.94489585	          3.61455991	         10.11445394	
          5.03000000	         -1.81680729	          3.65830077	         10.15517240	
          5.04000000	         -1.78987372	          3.68394745	         10.16777362	
          5.05000000	         -1.89267333	          3.70902647	         10.14305583	
          5.06000000	         -2.10154435	          3.75438419	         10.08169607	
          5.07000000	         -2.34891961	          3.83480608	          9.99293859	
          5.08000000	         -2.55312052	          3.95136185	          9.88895314	
          5.09000000	         -2.65265234	          4.09018251	          9.77904908	
          5.10000000	         -2.62486273	          4.22853821	          9.66739355	
          5.11000000	         -2.48066116	          4.34540751	          9.55462347	
          5.12000000	         -2.24233230	          4.43143935	          9.44131862	
          5.13000000	         -1.92451204	          4.49337052	          9.33040372	
          5.14000000	         -1.53743168	          4.55040124	          9.22631836	
          5.15000000	         -1.10662031	          4.62417504	          9.13190369	
          5.16000000	         -0.68230028	          4.72800618	          9.04665948	
          5.17000000	         -0.32078440	          4.86100419	          8.96898988	
          5.18000000	         -0.05054020	          5.00964580	          8.90062544	
          5.19000000	          0.14786182	          5.15484850	          8.84831881	
          5.20000000	          0.33275760	          5.28279874	          8.82149783	
          5.21000000	          0.57414667	          5.39153854	          8.82817842	
          5.22000000	          0.92518493	          5.49301449	          8.87221091	
          5.23000000	          1.39836657	          5.60767493	          8.95239766	
          5.24000000	          1.95160185	          5.75587338	          9.06117950	
          5.25000000	          2.49272507	          5.95041455	          9.18336191	
          5.26000000	          2.90684188	          6.19279302	          9.29738288	
          5.27000000	          3.09442368	          6.47377804	          9.38024370	
          5.28000000	          2.99894973	          6.77706930	          9.41331792	
          5.29000000	          2.61540502	          7.08474455	          9.38536249	
          5.30000000	          1.98203397	          7.38287640	          9.29126793	
          5.31000000	          1.16067247	          7.66453413	          9.12820759	
          5.32000000	          0.21494523	          7.92852101	          8.89266538	
          5.33000000	         -0.80514447	          8.17497393	          8.58047257	
          5.34000000	         -1.86920566	          8.40098490	          8.18919625	
          5.35000000	         -2.96395563	          8.59870294	          7.72073563	
          5.36000000	         -4.08636366	          8.75654268	          7.18233780	
          5.37000000	         -5.23686975	          8.86231245	          6.58572114	
          5.38000000	         -6.41428332	          8.90671607	          5.94527650	
          5.39000000	         -7.61201492	          8.88670349	          5.27607241	
          5.40000000	         -8.81778846	          8.80681004	          4.59195103	
          5.41000000	        -10.01273147	          8.67981206	          3.90476977	
          5.42000000	        -11.16930350	          8.53010918	          3.22329822	
          5.43000000	        -12.24659539	          8.39130275	          2.55523037	
          5.44000000	        -13.18859990	          8.30202712	          1.91090696	
          5.45000000	        -13.93540946	          8.28377117	          1.29766203	
          5.46000000	        -14.46307277	          8.30354443	          0.78334382	
          5.47000000	        -14.61026955	          8.44524114	          0.24960791	
          5.48000000	        -14.50230085	          8.49392980	         -0.20630479	
          5.49000000	        -14.07954670	          8.77636909	         -0.31474400	
          5.50000000	        -13.36744552	          9.09812072	         -0.47606536	
          5.51000000	        -12.40711960	          9.24834462	         -0.38117667	
          5.52000000	        -11.21587581	          9.33485667	         -0.14290016	
          5.53000000	         -9.85342024	          9.48911284	          0.22597573	
          5.54000000	         -8.42726932	          9.68358129	          0.67628382	
          5.55000000	         -7.00351709	          9.91468352	          1.16053796	
          5.56000000	         -5.63318821	         10.16338373	          1.64054352	
          5.57000000	         -4.35089370	         10.41123411	          2.09006103	
          5.58000000	         -3.17959941	         10.64094221	          2.49391280	
          5.59000000	         -2.13234573	         10.83826030	          2.84584665	
          5.60000000	         -1.21257551	         10.99164061	          3.14607048	
          5.61000000	         -0.41714545	         11.09416584	          3.39971201	
          5.62000000	          0.26029864	         11.14006452	          3.61432812	
          5.63000000	          0.83237158	         11.12427714	          3.79894752	
          5.64000000	          1.32236572	         11.06399889	          3.96185483	
          5.65000000	          1.76553766	         10.96543076	          4.11799029	
          5.66000000	          2.20871707	         10.84499272	          4.28338699	
          5.67000000	          2.68663852	         10.71379816	          4.46955166	
          5.68000000	          3.21578083	         10.57984189	          4.68232539	
          5.69000000	          3.76633487	         10.44801001	          4.91636191	
          5.70000000	          4.30047994	         10.32304817	          5.14170551	
          5.71000000	          4.65917537	         10.25482666	          5.26428933	
          5.72000000	          5.78675586	         10.22848452	          5.24785400	
          5.73000000	          6.69252296	         10.11047371	          5.26684387	
          5.74000000	          6.70428151	         10.17306745	          5.51441098	
          5.75000000	          6.80754933	          9.94302314	          5.77731092	
          5.76000000	          6.88350305	          9.85251125	          5.97604764	
          5.77000000	          7.73665077	          9.79577175	          6.20694855	
          5.78000000	          6.94128950	          9.66767998	          6.43841948	
          5.79000000	          6.14033081	          9.67405522	          6.69606704	
          5.80000000	          6.21549834	          9.64137173	          6.94787552	
          5.81000000	          5.04201685	          9.60578105	          7.20090695	
          5.82000000	          4.70269838	          9.55765516	          7.30201906	
          5.83000000	          4.03718750	          9.49611061	          7.41479073	
          5.84000000	          2.58724432	          9.51557541	          7.45743515	
          5.85000000	          1.91114758	          9.42828565	          7.27929783	
          5.86000000	          1.13280238	          9.42054209	          7.02940518	
          5.87000000	          0.62376691	          9.43749067	          6.64463775	
          5.88000000	          0.24271546	          9.49132585	          6.19452233	
          5.89000000	         -0.03110989	          9.56250631	          5.71016881	
          5.90000000	         -0.27291089	          9.65284357	          5.21276548	
          5.91000000	         -0.56102642	          9.76054233	          4.70871221	
          5.92000000	         -0.94127079	          9.84721689	          4.20871492	
          5.93000000	         -1.45199950	          9.90134957	          3.71862678	
          5.94000000	         -2.06467837	          9.93319540	          3.26940262	
          5.95000000	         -2.58627077	          9.96237208	          2.94889285	
          5.96000000	         -3.13276497	          9.96460037	          2.66833746	
          5.97000000	         -3.68139482	          9.93516295	          2.36677422	
          5.98000000	         -4.22655018	          9.84869566	          1.98016817	
          5.99000000	         -4.83506734	          9.73528725	          1.58718615	
          6.00000000	         -5.37381574	          9.63751637	          1.20704399	
          6.01000000	         -5.84176026	          9.55897571	          0.82393326	
          6.02000000	         -6.19626526	          9.51805399	          0.40459797	
          6.03000000	         -6.38189106	          9.52525647	         -0.06149559	
          6.04000000	         -6.35990483	          9.59404396	         -0.57489552	
          6.05000000	         -6.16671359	          9.60830241	         -0.96587474	
